<svg  viewBox="0 0 281 429" fill="none" xmlns="http://www.w3.org/2000/svg">
<path d="M121.643 347.643H79.5357V304.571C79.5357 299.286 75.3455 295 70.1786 295H60.8214C55.6545 295 51.4643 299.286 51.4643 304.571V347.643H9.35714C4.19025 347.643 0 351.929 0 357.214V366.786C0 372.071 4.19025 376.357 9.35714 376.357H51.4643V419.429C51.4643 424.714 55.6545 429 60.8214 429H70.1786C75.3455 429 79.5357 424.714 79.5357 419.429V376.357H121.643C126.81 376.357 131 372.071 131 366.786V357.214C131 351.929 126.81 347.643 121.643 347.643Z" fill="#FC2D81"/>
<path d="M271.643 283.643H229.536V240.571C229.536 235.286 225.345 231 220.179 231H210.821C205.655 231 201.464 235.286 201.464 240.571V283.643H159.357C154.19 283.643 150 287.929 150 293.214V302.786C150 308.071 154.19 312.357 159.357 312.357H201.464V355.429C201.464 360.714 205.655 365 210.821 365H220.179C225.345 365 229.536 360.714 229.536 355.429V312.357H271.643C276.81 312.357 281 308.071 281 302.786V293.214C281 287.929 276.81 283.643 271.643 283.643Z" fill="#FC2D81"/>
<path d="M183.5 14.0001C111.5 -54.4 34.8333 169.167 5.5 289.5L266 122C268.5 114.5 255.5 82.4001 183.5 14.0001Z" stroke="black"/>
</svg>
