<svg width="131" height="32" viewBox="0 0 131 32" fill="none" xmlns="http://www.w3.org/2000/svg">
<path d="M6.71775 2.05778C-7.20421 9.84412 2.8158 32.269 15.9072 24.9471C22.185 21.4361 28.2415 9.5659 31.7955 2.04711C25.1969 0.206519 12.9955 -1.45328 6.71775 2.05778Z" fill="#FC2D81"/>
<path d="M25.2823 29.9422C39.2042 22.1559 29.1842 -0.268967 16.0928 7.05287C9.81501 10.5639 3.75854 22.4341 0.204508 29.9529C6.80309 31.7935 19.0045 33.4533 25.2823 29.9422Z" fill="#386FFE"/>
<path d="M53.4999 27.3C51.8799 27.3 50.3099 27.07 48.7899 26.61C47.2899 26.15 46.0999 25.54 45.2199 24.78L46.5699 21.75C47.4299 22.43 48.4799 22.99 49.7199 23.43C50.9799 23.85 52.2399 24.06 53.4999 24.06C55.0599 24.06 56.2199 23.81 56.9799 23.31C57.7599 22.81 58.1499 22.15 58.1499 21.33C58.1499 20.73 57.9299 20.24 57.4899 19.86C57.0699 19.46 56.5299 19.15 55.8699 18.93C55.2099 18.71 54.3099 18.46 53.1699 18.18C51.5699 17.8 50.2699 17.42 49.2699 17.04C48.2899 16.66 47.4399 16.07 46.7199 15.27C46.0199 14.45 45.6699 13.35 45.6699 11.97C45.6699 10.81 45.9799 9.76 46.5999 8.82C47.2399 7.86 48.1899 7.1 49.4499 6.54C50.7299 5.98 52.2899 5.7 54.1299 5.7C55.4099 5.7 56.6699 5.86 57.9099 6.18C59.1499 6.5 60.2199 6.96 61.1199 7.56L59.8899 10.59C58.9699 10.05 58.0099 9.64 57.0099 9.36C56.0099 9.08 55.0399 8.94 54.0999 8.94C52.5599 8.94 51.4099 9.2 50.6499 9.72C49.9099 10.24 49.5399 10.93 49.5399 11.79C49.5399 12.39 49.7499 12.88 50.1699 13.26C50.6099 13.64 51.1599 13.94 51.8199 14.16C52.4799 14.38 53.3799 14.63 54.5199 14.91C56.0799 15.27 57.3599 15.65 58.3599 16.05C59.3599 16.43 60.2099 17.02 60.9099 17.82C61.6299 18.62 61.9899 19.7 61.9899 21.06C61.9899 22.22 61.6699 23.27 61.0299 24.21C60.4099 25.15 59.4599 25.9 58.1799 26.46C56.8999 27.02 55.3399 27.3 53.4999 27.3ZM75.6671 27.3C73.5271 27.3 71.5971 26.84 69.8771 25.92C68.1571 24.98 66.8071 23.69 65.8271 22.05C64.8471 20.39 64.3571 18.54 64.3571 16.5C64.3571 14.46 64.8471 12.62 65.8271 10.98C66.8071 9.32 68.1571 8.03 69.8771 7.11C71.5971 6.17 73.5271 5.7 75.6671 5.7C77.8071 5.7 79.7371 6.17 81.4571 7.11C83.1771 8.03 84.5271 9.31 85.5071 10.95C86.4871 12.59 86.9771 14.44 86.9771 16.5C86.9771 18.56 86.4871 20.41 85.5071 22.05C84.5271 23.69 83.1771 24.98 81.4571 25.92C79.7371 26.84 77.8071 27.3 75.6671 27.3ZM75.6671 23.88C77.0671 23.88 78.3271 23.57 79.4471 22.95C80.5671 22.31 81.4471 21.43 82.0871 20.31C82.7271 19.17 83.0471 17.9 83.0471 16.5C83.0471 15.1 82.7271 13.84 82.0871 12.72C81.4471 11.58 80.5671 10.7 79.4471 10.08C78.3271 9.44 77.0671 9.12 75.6671 9.12C74.2671 9.12 73.0071 9.44 71.8871 10.08C70.7671 10.7 69.8871 11.58 69.2471 12.72C68.6071 13.84 68.2871 15.1 68.2871 16.5C68.2871 17.9 68.6071 19.17 69.2471 20.31C69.8871 21.43 70.7671 22.31 71.8871 22.95C73.0071 23.57 74.2671 23.88 75.6671 23.88ZM109.637 6L100.487 27H96.6472L87.4672 6H91.6972L98.6872 22.2L105.737 6H109.637ZM124.799 22.14H114.299L112.229 27H108.209L117.659 6H121.499L130.979 27H126.899L124.799 22.14ZM123.509 19.08L119.549 9.9L115.619 19.08H123.509Z" fill="#0F1F48"/>
</svg>
