<svg width="161" height="17" viewBox="0 0 161 17" fill="none" xmlns="http://www.w3.org/2000/svg">
<path d="M3.5688 1.0932C-3.82724 5.22969 1.49589 17.1429 8.45071 13.2532C11.7858 11.3879 15.0033 5.08188 16.8914 1.08753C13.3859 0.109713 6.90387 -0.772055 3.5688 1.0932Z" fill="#FC2D81"/>
<path d="M13.4312 15.9068C20.8272 11.7703 15.5041 -0.142887 8.54929 3.74684C5.21422 5.61209 1.99672 11.9181 0.108645 15.9125C3.61414 16.8903 10.0961 17.7721 13.4312 15.9068Z" fill="#386FFE"/>
<path class="logo-sova-text" d="M27.976 15.66C27.112 15.66 26.2747 15.5373 25.464 15.292C24.664 15.0467 24.0293 14.7213 23.56 14.316L24.28 12.7C24.7387 13.0627 25.2987 13.3613 25.96 13.596C26.632 13.82 27.304 13.932 27.976 13.932C28.808 13.932 29.4267 13.7987 29.832 13.532C30.248 13.2653 30.456 12.9133 30.456 12.476C30.456 12.156 30.3387 11.8947 30.104 11.692C29.88 11.4787 29.592 11.3133 29.24 11.196C28.888 11.0787 28.408 10.9453 27.8 10.796C26.9467 10.5933 26.2533 10.3907 25.72 10.188C25.1973 9.98533 24.744 9.67067 24.36 9.244C23.9867 8.80667 23.8 8.22 23.8 7.484C23.8 6.86533 23.9653 6.30533 24.296 5.804C24.6373 5.292 25.144 4.88667 25.816 4.588C26.4987 4.28933 27.3307 4.14 28.312 4.14C28.9947 4.14 29.6667 4.22533 30.328 4.396C30.9893 4.56667 31.56 4.812 32.04 5.132L31.384 6.748C30.8933 6.46 30.3813 6.24133 29.848 6.092C29.3147 5.94267 28.7973 5.868 28.296 5.868C27.4747 5.868 26.8613 6.00667 26.456 6.284C26.0613 6.56133 25.864 6.92933 25.864 7.388C25.864 7.708 25.976 7.96933 26.2 8.172C26.4347 8.37467 26.728 8.53467 27.08 8.652C27.432 8.76933 27.912 8.90267 28.52 9.052C29.352 9.244 30.0347 9.44667 30.568 9.66C31.1013 9.86267 31.5547 10.1773 31.928 10.604C32.312 11.0307 32.504 11.6067 32.504 12.332C32.504 12.9507 32.3333 13.5107 31.992 14.012C31.6613 14.5133 31.1547 14.9133 30.472 15.212C29.7893 15.5107 28.9573 15.66 27.976 15.66ZM39.7985 15.66C38.6572 15.66 37.6278 15.4147 36.7105 14.924C35.7932 14.4227 35.0732 13.7347 34.5505 12.86C34.0278 11.9747 33.7665 10.988 33.7665 9.9C33.7665 8.812 34.0278 7.83067 34.5505 6.956C35.0732 6.07067 35.7932 5.38267 36.7105 4.892C37.6278 4.39067 38.6572 4.14 39.7985 4.14C40.9398 4.14 41.9692 4.39067 42.8865 4.892C43.8038 5.38267 44.5238 6.06533 45.0465 6.94C45.5692 7.81467 45.8305 8.80133 45.8305 9.9C45.8305 10.9987 45.5692 11.9853 45.0465 12.86C44.5238 13.7347 43.8038 14.4227 42.8865 14.924C41.9692 15.4147 40.9398 15.66 39.7985 15.66ZM39.7985 13.836C40.5452 13.836 41.2172 13.6707 41.8145 13.34C42.4118 12.9987 42.8812 12.5293 43.2225 11.932C43.5638 11.324 43.7345 10.6467 43.7345 9.9C43.7345 9.15333 43.5638 8.48133 43.2225 7.884C42.8812 7.276 42.4118 6.80667 41.8145 6.476C41.2172 6.13467 40.5452 5.964 39.7985 5.964C39.0518 5.964 38.3798 6.13467 37.7825 6.476C37.1852 6.80667 36.7158 7.276 36.3745 7.884C36.0332 8.48133 35.8625 9.15333 35.8625 9.9C35.8625 10.6467 36.0332 11.324 36.3745 11.932C36.7158 12.5293 37.1852 12.9987 37.7825 13.34C38.3798 13.6707 39.0518 13.836 39.7985 13.836ZM57.9159 4.3L53.0359 15.5H50.9879L46.0919 4.3H48.3479L52.0759 12.94L55.8359 4.3H57.9159ZM66.0024 12.908H60.4024L59.2984 15.5H57.1544L62.1944 4.3H64.2424L69.2984 15.5H67.1224L66.0024 12.908ZM65.3144 11.276L63.2024 6.38L61.1064 11.276H65.3144Z" fill="white"/>
<path class="logo-sova-text__voice-studio" d="M83.84 8.08L80.592 15.5H79.22L75.972 8.08H77.372L79.92 14.03L82.524 8.08H83.84ZM88.0672 15.584C87.3299 15.584 86.6672 15.4207 86.0792 15.094C85.4912 14.7673 85.0292 14.3193 84.6932 13.75C84.3666 13.1713 84.2032 12.518 84.2032 11.79C84.2032 11.062 84.3666 10.4133 84.6932 9.844C85.0292 9.26533 85.4912 8.81733 86.0792 8.5C86.6672 8.17333 87.3299 8.01 88.0672 8.01C88.8046 8.01 89.4626 8.17333 90.0412 8.5C90.6292 8.81733 91.0866 9.26533 91.4132 9.844C91.7492 10.4133 91.9172 11.062 91.9172 11.79C91.9172 12.518 91.7492 13.1713 91.4132 13.75C91.0866 14.3193 90.6292 14.7673 90.0412 15.094C89.4626 15.4207 88.8046 15.584 88.0672 15.584ZM88.0672 14.408C88.5432 14.408 88.9679 14.3007 89.3412 14.086C89.7239 13.862 90.0226 13.554 90.2372 13.162C90.4519 12.7607 90.5592 12.3033 90.5592 11.79C90.5592 11.2767 90.4519 10.824 90.2372 10.432C90.0226 10.0307 89.7239 9.72267 89.3412 9.508C88.9679 9.29333 88.5432 9.186 88.0672 9.186C87.5912 9.186 87.1619 9.29333 86.7792 9.508C86.4059 9.72267 86.1072 10.0307 85.8832 10.432C85.6686 10.824 85.5612 11.2767 85.5612 11.79C85.5612 12.3033 85.6686 12.7607 85.8832 13.162C86.1072 13.554 86.4059 13.862 86.7792 14.086C87.1619 14.3007 87.5912 14.408 88.0672 14.408ZM93.776 8.08H95.12V15.5H93.776V8.08ZM94.448 6.652C94.1866 6.652 93.9673 6.568 93.79 6.4C93.622 6.232 93.538 6.02667 93.538 5.784C93.538 5.54133 93.622 5.336 93.79 5.168C93.9673 4.99067 94.1866 4.902 94.448 4.902C94.7093 4.902 94.924 4.986 95.092 5.154C95.2693 5.31267 95.358 5.51333 95.358 5.756C95.358 6.008 95.2693 6.22267 95.092 6.4C94.924 6.568 94.7093 6.652 94.448 6.652ZM100.92 15.584C100.164 15.584 99.4874 15.4207 98.8901 15.094C98.3021 14.7673 97.8401 14.3193 97.5041 13.75C97.1681 13.1713 97.0001 12.518 97.0001 11.79C97.0001 11.062 97.1681 10.4133 97.5041 9.844C97.8401 9.26533 98.3021 8.81733 98.8901 8.5C99.4874 8.17333 100.164 8.01 100.92 8.01C101.592 8.01 102.189 8.14533 102.712 8.416C103.244 8.68667 103.655 9.07867 103.944 9.592L102.922 10.25C102.689 9.89533 102.399 9.62933 102.054 9.452C101.709 9.27467 101.326 9.186 100.906 9.186C100.421 9.186 99.9821 9.29333 99.5901 9.508C99.2074 9.72267 98.9041 10.0307 98.6801 10.432C98.4654 10.824 98.3581 11.2767 98.3581 11.79C98.3581 12.3127 98.4654 12.7747 98.6801 13.176C98.9041 13.568 99.2074 13.8713 99.5901 14.086C99.9821 14.3007 100.421 14.408 100.906 14.408C101.326 14.408 101.709 14.3193 102.054 14.142C102.399 13.9647 102.689 13.6987 102.922 13.344L103.944 13.988C103.655 14.5013 103.244 14.898 102.712 15.178C102.189 15.4487 101.592 15.584 100.92 15.584ZM112.281 11.832C112.281 11.9347 112.271 12.07 112.253 12.238H106.233C106.317 12.8913 106.601 13.4187 107.087 13.82C107.581 14.212 108.193 14.408 108.921 14.408C109.807 14.408 110.521 14.1093 111.063 13.512L111.805 14.38C111.469 14.772 111.049 15.0707 110.545 15.276C110.05 15.4813 109.495 15.584 108.879 15.584C108.095 15.584 107.399 15.4253 106.793 15.108C106.186 14.7813 105.715 14.3287 105.379 13.75C105.052 13.1713 104.889 12.518 104.889 11.79C104.889 11.0713 105.047 10.4227 105.365 9.844C105.691 9.26533 106.135 8.81733 106.695 8.5C107.264 8.17333 107.903 8.01 108.613 8.01C109.322 8.01 109.952 8.17333 110.503 8.5C111.063 8.81733 111.497 9.26533 111.805 9.844C112.122 10.4227 112.281 11.0853 112.281 11.832ZM108.613 9.144C107.969 9.144 107.427 9.34 106.989 9.732C106.559 10.124 106.307 10.6373 106.233 11.272H110.993C110.918 10.6467 110.661 10.138 110.223 9.746C109.793 9.34467 109.257 9.144 108.613 9.144ZM120.035 15.584C119.428 15.584 118.845 15.5047 118.285 15.346C117.725 15.178 117.286 14.968 116.969 14.716L117.529 13.652C117.855 13.8853 118.252 14.072 118.719 14.212C119.185 14.352 119.657 14.422 120.133 14.422C121.309 14.422 121.897 14.086 121.897 13.414C121.897 13.19 121.817 13.0127 121.659 12.882C121.5 12.7513 121.299 12.658 121.057 12.602C120.823 12.5367 120.487 12.4667 120.049 12.392C119.451 12.2987 118.961 12.1913 118.579 12.07C118.205 11.9487 117.883 11.7433 117.613 11.454C117.342 11.1647 117.207 10.7587 117.207 10.236C117.207 9.564 117.487 9.02733 118.047 8.626C118.607 8.21533 119.358 8.01 120.301 8.01C120.795 8.01 121.29 8.07067 121.785 8.192C122.279 8.31333 122.685 8.47667 123.003 8.682L122.429 9.746C121.822 9.354 121.108 9.158 120.287 9.158C119.717 9.158 119.283 9.25133 118.985 9.438C118.686 9.62467 118.537 9.872 118.537 10.18C118.537 10.4227 118.621 10.614 118.789 10.754C118.957 10.894 119.162 10.9967 119.405 11.062C119.657 11.1273 120.007 11.202 120.455 11.286C121.052 11.3887 121.533 11.5007 121.897 11.622C122.27 11.734 122.587 11.93 122.849 12.21C123.11 12.49 123.241 12.882 123.241 13.386C123.241 14.058 122.951 14.5947 122.373 14.996C121.803 15.388 121.024 15.584 120.035 15.584ZM129.092 15.066C128.896 15.234 128.654 15.3647 128.364 15.458C128.075 15.542 127.776 15.584 127.468 15.584C126.722 15.584 126.143 15.3833 125.732 14.982C125.322 14.5807 125.116 14.0067 125.116 13.26V9.186H123.856V8.08H125.116V6.456H126.46V8.08H128.588V9.186H126.46V13.204C126.46 13.6053 126.558 13.9133 126.754 14.128C126.96 14.3427 127.249 14.45 127.622 14.45C128.033 14.45 128.383 14.3333 128.672 14.1L129.092 15.066ZM137.633 8.08V15.5H136.359V14.38C136.089 14.7627 135.729 15.0613 135.281 15.276C134.843 15.4813 134.362 15.584 133.839 15.584C132.85 15.584 132.071 15.3133 131.501 14.772C130.932 14.2213 130.647 13.414 130.647 12.35V8.08H131.991V12.196C131.991 12.9147 132.164 13.4607 132.509 13.834C132.855 14.198 133.349 14.38 133.993 14.38C134.703 14.38 135.263 14.1653 135.673 13.736C136.084 13.3067 136.289 12.7 136.289 11.916V8.08H137.633ZM147.192 5.112V15.5H145.904V14.324C145.605 14.7347 145.227 15.0473 144.77 15.262C144.313 15.4767 143.809 15.584 143.258 15.584C142.539 15.584 141.895 15.4253 141.326 15.108C140.757 14.7907 140.309 14.3473 139.982 13.778C139.665 13.1993 139.506 12.5367 139.506 11.79C139.506 11.0433 139.665 10.3853 139.982 9.816C140.309 9.24667 140.757 8.80333 141.326 8.486C141.895 8.16867 142.539 8.01 143.258 8.01C143.79 8.01 144.28 8.11267 144.728 8.318C145.176 8.514 145.549 8.808 145.848 9.2V5.112H147.192ZM143.37 14.408C143.837 14.408 144.261 14.3007 144.644 14.086C145.027 13.862 145.325 13.554 145.54 13.162C145.755 12.7607 145.862 12.3033 145.862 11.79C145.862 11.2767 145.755 10.824 145.54 10.432C145.325 10.0307 145.027 9.72267 144.644 9.508C144.261 9.29333 143.837 9.186 143.37 9.186C142.894 9.186 142.465 9.29333 142.082 9.508C141.709 9.72267 141.41 10.0307 141.186 10.432C140.971 10.824 140.864 11.2767 140.864 11.79C140.864 12.3033 140.971 12.7607 141.186 13.162C141.41 13.554 141.709 13.862 142.082 14.086C142.465 14.3007 142.894 14.408 143.37 14.408ZM149.735 8.08H151.079V15.5H149.735V8.08ZM150.407 6.652C150.146 6.652 149.926 6.568 149.749 6.4C149.581 6.232 149.497 6.02667 149.497 5.784C149.497 5.54133 149.581 5.336 149.749 5.168C149.926 4.99067 150.146 4.902 150.407 4.902C150.668 4.902 150.883 4.986 151.051 5.154C151.228 5.31267 151.317 5.51333 151.317 5.756C151.317 6.008 151.228 6.22267 151.051 6.4C150.883 6.568 150.668 6.652 150.407 6.652ZM156.823 15.584C156.086 15.584 155.423 15.4207 154.835 15.094C154.247 14.7673 153.785 14.3193 153.449 13.75C153.122 13.1713 152.959 12.518 152.959 11.79C152.959 11.062 153.122 10.4133 153.449 9.844C153.785 9.26533 154.247 8.81733 154.835 8.5C155.423 8.17333 156.086 8.01 156.823 8.01C157.56 8.01 158.218 8.17333 158.797 8.5C159.385 8.81733 159.842 9.26533 160.169 9.844C160.505 10.4133 160.673 11.062 160.673 11.79C160.673 12.518 160.505 13.1713 160.169 13.75C159.842 14.3193 159.385 14.7673 158.797 15.094C158.218 15.4207 157.56 15.584 156.823 15.584ZM156.823 14.408C157.299 14.408 157.724 14.3007 158.097 14.086C158.48 13.862 158.778 13.554 158.993 13.162C159.208 12.7607 159.315 12.3033 159.315 11.79C159.315 11.2767 159.208 10.824 158.993 10.432C158.778 10.0307 158.48 9.72267 158.097 9.508C157.724 9.29333 157.299 9.186 156.823 9.186C156.347 9.186 155.918 9.29333 155.535 9.508C155.162 9.72267 154.863 10.0307 154.639 10.432C154.424 10.824 154.317 11.2767 154.317 11.79C154.317 12.3033 154.424 12.7607 154.639 13.162C154.863 13.554 155.162 13.862 155.535 14.086C155.918 14.3007 156.347 14.408 156.823 14.408Z" fill="white"/>
</svg>
