<svg width="445" height="450" viewBox="0 0 445 450" fill="none" xmlns="http://www.w3.org/2000/svg">
<circle cx="211" cy="237" r="116" fill="#FEABCD"/>
<path d="M371.552 278.948C349.383 367.734 259.437 421.739 170.65 399.571M50.027 198.67C65.4685 136.825 113.796 91.8554 171.71 77.7509" stroke="#FC2D81" stroke-width="16" stroke-linecap="round"/>
<path d="M381.148 178.03C414.459 274.328 363.398 379.397 267.1 412.708M146.47 63.9822C111.235 76.1704 82.0567 97.9655 60.8514 125.423" stroke="#FC2D81" stroke-width="5" stroke-linecap="round"/>
<rect x="39.5" y="134" width="4" height="46" fill="white"/>
<path d="M174.721 194.208H142.714V281H117.006V194.208H85.585V174.359H174.721V194.208ZM270.521 194.208H238.515V281H212.807V194.208H181.386V174.359H270.521V194.208ZM335.268 252.655C335.268 248.896 333.925 245.966 331.239 243.866C328.603 241.767 323.939 239.594 317.25 237.348C310.561 235.102 305.092 232.929 300.844 230.829C287.025 224.042 280.116 214.716 280.116 202.851C280.116 196.942 281.825 191.742 285.243 187.25C288.71 182.709 293.593 179.193 299.892 176.703C306.19 174.164 313.271 172.895 321.132 172.895C328.798 172.895 335.658 174.262 341.713 176.996C347.816 179.73 352.553 183.637 355.922 188.715C359.291 193.744 360.976 199.506 360.976 206H335.341C335.341 201.654 333.998 198.285 331.312 195.893C328.676 193.5 325.087 192.304 320.546 192.304C315.956 192.304 312.318 193.329 309.633 195.38C306.996 197.382 305.678 199.945 305.678 203.07C305.678 205.805 307.143 208.295 310.072 210.541C313.002 212.738 318.153 215.033 325.526 217.426C332.899 219.77 338.954 222.309 343.69 225.043C355.214 231.684 360.976 240.839 360.976 252.509C360.976 261.835 357.46 269.159 350.429 274.481C343.397 279.804 333.754 282.465 321.498 282.465C312.855 282.465 305.019 280.927 297.987 277.851C291.005 274.726 285.731 270.478 282.167 265.106C278.651 259.687 276.894 253.461 276.894 246.43H302.675C302.675 252.143 304.14 256.366 307.069 259.101C310.048 261.786 314.857 263.129 321.498 263.129C325.746 263.129 329.091 262.226 331.532 260.419C334.022 258.563 335.268 255.976 335.268 252.655Z" fill="#FC2D81"/>
</svg>
