<svg width="424" height="568" viewBox="0 0 424 568" fill="none" xmlns="http://www.w3.org/2000/svg">
<rect x="80" y="181" width="232" height="232" fill="#C3D4FF"/>
<path d="M142.327 430.258L108.348 455.125L82.9107 420.367C79.7894 416.102 73.8766 415.118 69.707 418.169L62.156 423.696C57.9864 426.747 57.1363 432.681 60.2576 436.946L85.6946 471.703L51.7149 496.571C47.5453 499.622 46.6952 505.556 49.8165 509.821L55.4692 517.545C58.5905 521.81 64.5033 522.794 68.6729 519.743L102.653 494.875L128.09 529.633C131.211 533.898 137.124 534.882 141.293 531.831L148.844 526.305C153.014 523.253 153.864 517.32 150.743 513.055L125.306 478.297L159.285 453.429C163.455 450.378 164.305 444.444 161.184 440.179L155.531 432.455C152.41 428.19 146.497 427.206 142.327 430.258Z" fill="#386FFE"/>
<path d="M389.819 53.0318L349.639 65.6244L336.758 24.5242C335.178 19.4808 329.897 16.6439 324.967 18.1891L316.038 20.9875C311.107 22.5327 308.391 27.8759 309.971 32.9192L322.852 74.0194L282.672 86.612C277.742 88.1572 275.025 93.5004 276.606 98.5438L279.468 107.677C281.049 112.72 286.329 115.557 291.26 114.012L331.44 101.42L344.321 142.52C345.901 147.563 351.182 150.4 356.112 148.855L365.041 146.057C369.971 144.511 372.688 139.168 371.107 134.125L358.226 93.0245L398.406 80.432C403.337 78.8868 406.054 73.5436 404.473 68.5002L401.611 59.3669C400.03 54.3235 394.75 51.4866 389.819 53.0318Z" fill="#386FFE"/>
<path d="M109.131 328.078H73.9014L67.749 348H40.2832L79.3945 241.359H103.564L142.969 348H115.356L109.131 328.078ZM80.0537 308.229H102.979L91.4795 271.242L80.0537 308.229ZM205.811 319.655C205.811 315.896 204.468 312.966 201.782 310.866C199.146 308.767 194.482 306.594 187.793 304.348C181.104 302.102 175.635 299.929 171.387 297.829C157.568 291.042 150.659 281.716 150.659 269.851C150.659 263.942 152.368 258.742 155.786 254.25C159.253 249.709 164.136 246.193 170.435 243.703C176.733 241.164 183.813 239.895 191.675 239.895C199.341 239.895 206.201 241.262 212.256 243.996C218.359 246.73 223.096 250.637 226.465 255.715C229.834 260.744 231.519 266.506 231.519 273H205.884C205.884 268.654 204.541 265.285 201.855 262.893C199.219 260.5 195.63 259.304 191.089 259.304C186.499 259.304 182.861 260.329 180.176 262.38C177.539 264.382 176.221 266.945 176.221 270.07C176.221 272.805 177.686 275.295 180.615 277.541C183.545 279.738 188.696 282.033 196.069 284.426C203.442 286.77 209.497 289.309 214.233 292.043C225.757 298.684 231.519 307.839 231.519 319.509C231.519 328.835 228.003 336.159 220.972 341.481C213.94 346.804 204.297 349.465 192.041 349.465C183.398 349.465 175.562 347.927 168.53 344.851C161.548 341.726 156.274 337.478 152.71 332.106C149.194 326.687 147.437 320.461 147.437 313.43H173.218C173.218 319.143 174.683 323.366 177.612 326.101C180.591 328.786 185.4 330.129 192.041 330.129C196.289 330.129 199.634 329.226 202.075 327.419C204.565 325.563 205.811 322.976 205.811 319.655ZM284.326 310.354H270.41V348H244.702V241.359H286.67C299.316 241.359 309.204 244.167 316.333 249.782C323.462 255.397 327.026 263.332 327.026 273.586C327.026 281.008 325.513 287.16 322.485 292.043C319.507 296.926 314.819 300.881 308.423 303.908L330.688 346.901V348H303.149L284.326 310.354ZM270.41 290.505H286.67C291.553 290.505 295.215 289.235 297.656 286.696C300.146 284.108 301.392 280.52 301.392 275.93C301.392 271.34 300.146 267.751 297.656 265.163C295.166 262.526 291.504 261.208 286.67 261.208H270.41V290.505Z" fill="#386FFE"/>
</svg>
