<svg  viewBox="0 0 540 389" fill="none" xmlns="http://www.w3.org/2000/svg">
<path d="M260.875 223.183C236.375 197.183 161.375 213.14 121.875 240.183C-73.125 373.683 24.375 442.683 24.375 442.683L288.375 461.183L463.875 442.683C288.375 334.683 454.375 182.682 537.875 156.683C557.926 150.44 387.875 145.683 348.875 175.183C312.149 202.963 284.338 248.082 260.875 223.183Z" fill="#386FFE"/>
<path d="M231.5 88.5V259" stroke="black" stroke-width="15" stroke-linecap="round"/>
<path d="M255.5 115L255.5 233" stroke="black" stroke-width="15" stroke-linecap="round"/>
<path d="M303.5 41L303.5 307" stroke="black" stroke-width="15" stroke-linecap="round"/>
<path d="M327.5 89L327.5 259" stroke="black" stroke-width="15" stroke-linecap="round"/>
<path d="M351.5 115L351.5 233" stroke="black" stroke-width="15" stroke-linecap="round"/>
<path d="M375.5 72L375.5 276" stroke="black" stroke-width="15" stroke-linecap="round"/>
<path d="M398.5 144L398.5 204" stroke="black" stroke-width="15" stroke-linecap="round"/>
<path d="M279.5 8L279.5 340" stroke="black" stroke-width="15" stroke-linecap="round"/>
<path d="M207.5 115L207.5 233" stroke="black" stroke-width="15" stroke-linecap="round"/>
<path d="M185.5 153L185.5 195" stroke="black" stroke-width="15" stroke-linecap="round"/>
</svg>
